# xmcd CD database file
#
# Track frame offsets:
#	150
#	31740
#	44428
#
# Disc length: 886 seconds
#
# Revision: 0
# Processed by: cddbd v1.5.1PL0 Copyright (c) Steve Scherf et al.
# Submitted via: CDex 1.51
#
DISCID=1b037403
DTITLE=SPORTS - SPORTS WEAR
DYEAR=2004
DGENRE=JPop
TTITLE0=Sports Wear
TTITLE1=Country Girl
TTITLE2=鉄の街
EXTD=YEAR: 2004
EXTT0=
EXTT1=
EXTT2=
PLAYORDER=
